<?xml version="1.0" encoding="UTF-8"?>
<svg id="Livello_3" data-name="Livello 3" xmlns="http://www.w3.org/2000/svg" width="351.33" height="572.14" viewBox="0 0 351.33 572.14">
  <g>
    <path d="m246.29,162.83c13.22,9.04,14.83,27.58,15.16,43.59,2.33,114.83,4.66,229.65,6.99,344.48-28.5-3.45-54.98,16.62-83.67,17.56-9.39.31-19.77-2.05-25.28-9.66-8.32-11.49-1.54-28.16-6.55-41.43-13.68,8.3-12.84,28.96-23.33,41.03-8.52,9.8-22.68,12.02-35.63,13.04-14.12,1.12-29.23,1.34-41.37-5.97-22-13.26-24.22-43.91-22.43-69.53,3.42-49.02,12.25-97.66,26.28-144.75-12.58,9.52-16.62,30.9-32.28,32.83-8.74,1.07-17.04-5.45-20.69-13.47-3.65-8.02-3.61-17.18-3.05-25.97,3.68-58.24,27.86-114.98,67.3-157.98-13.74-8.02-22.06-23.33-24.86-38.99-2.8-15.66-.71-31.77,2.31-47.39.57-2.95,1.16-6.11-.03-8.87-.99-2.32-3.07-3.95-4.91-5.67-11.66-10.89-15.47-30.17-6.76-43.54,4.77-7.32,12.42-12.18,19.84-16.81,15.6-9.74,31.61-19.65,49.61-23.4,13.56-2.83,27.6-2,41.4-.7,35.94,3.4,76.16,13,94.19,44.28,8.16,14.15,10.45,30.8,12.6,46.99,1.87,14.1,3.43,29.61-4.42,41.47-3.5,5.28-8.75,9.59-10.52,15.66-1.78,6.08,3.14,14.43,9.14,12.42" style="stroke-width: 0px;"/>
    <path d="m246.26,162.88c12.62,8.91,14.53,25.65,15.03,39.91.68,19.2.81,38.44,1.2,57.64.8,39.22,1.59,78.45,2.39,117.67.8,39.22,1.59,78.45,2.39,117.67.2,9.66.39,19.33.59,28.99.1,4.93.2,9.85.3,14.78.05,2.27.09,4.55.14,6.82.02,1.13.43,3.03-.35,3.9-.72.8-2.11.33-3.17.28-15.66-.83-30.67,4.91-45.22,9.9s-32.02,11.09-47.67,6.49c-8.08-2.37-14.06-8.07-15.92-16.38-1.7-7.59-.54-15.46-1.02-23.15-.22-3.43-.78-6.79-1.95-10.04-.01-.03-.04-.05-.07-.03-7.23,4.55-10.48,12.47-13.26,20.19-3.49,9.68-6.73,19.71-15.67,25.78s-21.06,7.47-31.89,8.25c-12.23.88-25.3,1.01-36.57-4.53-19.14-9.41-24.76-31.62-25.64-51.25-.5-11.16.43-22.31,1.43-33.42,1.26-13.95,2.96-27.86,5.09-41.71,4.65-30.22,11.39-60.11,20.1-89.42.02-.05-.05-.08-.08-.05-5.3,4.12-8.9,9.85-12.49,15.42s-7.54,12.16-13.72,15.47c-8.49,4.55-18.07.64-23.65-6.56C.04,367.08-.16,355.76.43,345.6c2.15-37.43,12.93-74.34,30.7-107.31,10.05-18.65,22.37-36.02,36.65-51.65.02-.02.02-.06-.01-.08-15.38-9.2-23.48-26.46-25.54-43.77-1.24-10.41-.47-20.97,1.07-31.31.71-4.76,1.89-9.48,2.46-14.25.4-3.32-.15-6.14-2.4-8.67-2.75-3.09-5.87-5.49-8.21-8.99s-3.92-7.01-4.99-10.86c-2.15-7.72-1.85-16.16,1.63-23.45,4-8.37,11.97-13.84,19.58-18.65s15.55-9.76,23.66-14.04c8.53-4.49,17.5-8.31,26.95-10.39C112.11-.05,122.55-.21,132.87.38c16.33.94,32.8,2.98,48.64,7.15,14.69,3.87,29.22,9.78,41.07,19.47,13.43,10.97,21.06,25.96,24.78,42.72,2.07,9.32,3.33,18.88,4.4,28.36.99,8.73,1.53,17.82-.85,26.38-1.3,4.69-3.56,8.82-6.58,12.62-2.33,2.93-4.93,5.69-6.72,9.01-2.58,4.76-2.57,11.05,1.9,14.77,1.7,1.42,3.69,1.83,5.81,1.25.06-.02.04-.11-.03-.1-6.19,1.71-10.05-5.79-9.33-11.03.81-5.9,5.82-10.35,9.25-14.86,6.29-8.27,7.8-18.46,7.41-28.6-.44-11.45-2.23-23.16-4.45-34.39-2.2-11.17-5.7-22.19-12.14-31.69-10.46-15.4-27.01-25.06-44.32-30.96C172.07,3.8,150.8,1.04,130.13.14c-12.49-.54-24.91.38-36.83,4.36-11.28,3.77-21.74,9.59-31.87,15.76-9.15,5.57-19.64,10.99-26.36,19.59-5.63,7.2-7.42,16.48-5.82,25.4.8,4.47,2.41,8.79,4.73,12.69,2.53,4.25,6.05,7.08,9.29,10.7,2.91,3.26,2.71,7.05,1.96,11.08-.63,3.37-1.27,6.74-1.8,10.13-.95,6.09-1.66,12.22-1.86,18.38-.7,20.85,5.22,43.99,23.23,56.55,1.17.81,2.76,1.24,1.95,2.83-.56,1.11-1.98,2.2-2.82,3.16-1.86,2.12-3.69,4.28-5.47,6.46-3.48,4.25-6.82,8.61-10.02,13.08-6.66,9.31-12.7,19.06-18.08,29.17-10.61,19.94-18.63,41.26-23.78,63.26-2.5,10.69-4.32,21.54-5.43,32.47-1.14,11.24-2.57,23.72,1.89,34.44,3.31,7.96,11.22,15.13,20.32,14.5,7.44-.51,12.7-5.93,16.78-11.67,2.53-3.56,4.74-7.32,7.2-10.93,1.25-1.84,2.56-3.65,4-5.34.39-.46,4.1-4.86,4.62-4.57.72.41-2,7.98-2.29,8.97-.89,3.15-1.75,6.31-2.6,9.48-1.73,6.51-3.37,13.04-4.9,19.6-5.93,25.34-10.4,51.03-13.35,76.89-3.8,33.29-12.48,93.12,31.84,103.78,10.77,2.59,22.21,1.89,33.14.79,9.57-.96,19.72-2.8,27.57-8.74,6.88-5.2,10.16-13.11,12.99-20.98,1.61-4.5,3.11-9.08,5.31-13.35.95-1.86,6.99-11.9,9.51-9.9.6.48.73,2.52.89,3.27.32,1.53.53,3.08.67,4.64.24,2.75.25,5.52.23,8.28-.04,4.85-.23,9.77.58,14.58,1.63,9.6,8.18,16.04,17.52,18.4,9.8,2.48,20.34.8,29.97-1.68,11.05-2.84,21.65-7.16,32.55-10.49,10.66-3.26,21.68-5.48,32.86-4.23.03,0,.05-.03.05-.05-1.1-54.19-2.2-108.38-3.3-162.58-1.1-54.38-2.21-108.76-3.31-163.14-.25-12.34.23-25-1.84-37.22-1.65-9.75-5.4-19.3-13.73-25.18-.05-.04-.1.05-.05.09h0Z" style="fill: #1d1d1b; stroke-width: 0px;"/>
  </g>
  <path d="m333.34,261.27c.06,0,.06-.1,0-.1s-.06.1,0,.1h0Z" style="fill: #1d1d1b; stroke-width: 0px;"/>
  <g>
    <path d="m334.09,260.04c-3.03,29.27-4.6,58.69-4.71,88.12,15.21-7.89,21.6-26.63,21.88-43.77.27-16.19-3.7-32.43-11.39-46.67-2.18-.14-4.42.59-5.79,2.32Z" style="stroke-width: 0px;"/>
    <path d="m334.04,260.04c-1.18,11.45-2.14,22.92-2.88,34.4-.73,11.42-1.25,22.86-1.54,34.31-.17,6.47-.26,12.94-.28,19.42,0,.04.04.06.08.04,5.45-2.84,9.93-7.21,13.26-12.35s5.7-11.38,7.05-17.56c1.46-6.68,1.84-13.52,1.48-20.34-.42-8.01-1.86-15.96-4.26-23.61-1.19-3.79-2.61-7.5-4.26-11.11-.83-1.82-1.69-3.66-2.68-5.4-.15-.26-.3-.18-.61-.19-.4,0-.8.02-1.19.08-.82.12-1.62.37-2.35.77s-1.3.89-1.79,1.5c-.04.05.03.12.07.07.93-1.15,2.24-1.88,3.69-2.17.36-.07.72-.12,1.09-.14.19-.01.37-.01.56-.01.27,0,.37.05.53.28.45.65.77,1.46,1.13,2.17,1.48,2.96,2.81,5.99,3.98,9.09,2.29,6.08,3.96,12.38,4.97,18.8s1.39,12.58,1.06,18.88c-.27,5.25-1.11,10.49-2.59,15.54s-3.53,9.71-6.41,13.98-6.45,7.86-10.77,10.51c-.54.33-1.09.65-1.66.95-.2.11-.2.16-.26-.05-.05-.17,0-.45,0-.63,0-.48,0-.96,0-1.44.01-1.8.03-3.6.05-5.39.04-3.6.11-7.19.2-10.79.18-7.16.44-14.32.79-21.47s.78-14.3,1.31-21.45,1.13-14.34,1.83-21.5c.17-1.73.34-3.46.52-5.19,0-.06-.09-.06-.1,0Z" style="fill: #1d1d1b; stroke-width: 0px;"/>
  </g>
</svg>